<svg version="1.2" xmlns="http://www.w3.org/2000/svg" viewBox="0 0 236 236" width="236" height="236">
	<style>
		.s0 { fill: #0e0f19 } 
		.s1 { fill: #04724d } 
	</style>
	<g id="g1">
		<path id="Shape 2" fill-rule="evenodd" class="s0" d="m74.07 122.22l31.28-27.33 9.71-30.2 2.94-17.62 10.01-18.7 12.22-15.82 4.68-2.16 3.23 7.19 2.52 5.4 14.38-8.63 4.68 3.59-2.06 9.56-4.2 6.14 9.49 6.24 3.96 7.19 6.83 12.94 2.52 6.47-4.54 8.58-6.25 5.45-16.54 5.39-0.36 7.55 4.31 19.78 2.16 17.26-7.91 20.85-1.44 14.02 1.08 20.5 1.08 16.9 0.36 8.99 4.67 10.07-6.47 3.59-10.52-1.62-49.89 5.22-29.48-10.79-10.07-13.66-7.19-26.25 4.67-20.86 4.32-19.05z"/>
		<path id="path1" class="s1" d="m90.25 231.07c-21.85-2.39-36.55-15.43-41.35-36.68-1.5-6.66-1.82-23.65-0.6-31.98 1.73-11.76 7.02-25.04 13.73-34.45 4.62-6.49 13.05-14.87 19.43-19.32 12.87-8.96 17.39-12.86 22.06-19.03 3.62-4.79 5.81-10.4 6.5-16.65 2.21-19.88 6.94-33.41 16.75-47.83 3.72-5.48 17.32-20.52 18.54-20.52 0.81 0 2.06 3.47 3.54 9.84 0.75 3.23 1.57 5.88 1.84 5.88 0.26 0 2.09-1.15 4.07-2.55 4.03-2.87 13.49-8.65 15.18-9.29 1.05-0.39 1.09-0.13 0.78 5.57-0.41 7.62-2.52 14.82-4.25 14.51-1.57-0.28-1.57-0.3-0.88-2.8 0.75-2.69 0.84-10.1 0.12-10.1-0.92 0-9.35 5.76-12.01 8.22-2.71 2.49-3.2 3.43-1.81 3.43 1.67 0 11.27 3.03 14.82 4.68 5.32 2.47 11.3 8.55 12.55 12.77 0.51 1.72 0.93 4.27 0.93 5.67 0 1.39 0.35 3.37 0.78 4.4 0.76 1.81 4.32 5.45 6.54 6.7 1.28 0.72 1.25 2.83-0.12 7.67-2.78 9.82-9.48 14.74-21.17 15.55-2.72 0.19-5.41 0.58-5.97 0.87-1.68 0.86-1.24 4.76 1.62 14.38 4.17 14.06 4.55 16.24 4.51 25.69-0.04 7.57-0.22 9.07-1.79 14.55-0.96 3.37-2.76 8.87-3.98 12.23l-2.24 6.11v23.87c-0.01 13.13 0.19 24.81 0.44 25.96 0.24 1.15 1.88 3.99 3.64 6.31 3.54 4.68 4.22 6.44 3.29 8.49-0.81 1.77-4.63 2.85-8.48 2.4-3.38-0.4-3.54-0.52-2.75-2.01 0.41-0.74 1.58-1.32 3.39-1.65 3.65-0.67 3.81-1.79 0.79-5.4-1.31-1.56-2.74-3.72-3.18-4.79-1.23-3.02-2.33-20.16-2.35-36.88-0.03-16.72-0.06-16.46 4.26-28.82 2.91-8.3 3.72-12.98 3.71-21.53-0.01-8.15-1.09-14.47-4.26-24.88-1.99-6.5-2.38-8.53-2.17-11.34 0.38-5.25 1.66-6.23 8.96-6.88 8.68-0.76 14.38-3.19 17.28-7.37 2.35-3.39 2.92-5.51 2.21-8.13-0.61-2.2-1.02-2.93-4.29-7.6-1.05-1.51-1.82-3.62-2.2-6.05-1.38-8.83-4.18-12.77-11.67-16.48-4.07-2.01-13.24-4.39-16.96-4.41-1.12-0.01-1.62-0.32-1.65-1.03-0.02-0.56-0.14-3.77-0.25-7.13-0.2-6.13-1.23-11.08-2.39-11.47-1.03-0.34-9.95 9.43-13.34 14.62-7.63 11.71-12.17 24.69-13.98 39.97-0.51 4.3-1.42 10.02-2.03 12.7-2.82 12.39-9.72 21.47-23.3 30.67-7.1 4.81-15.37 12.01-19.52 17.01-7.96 9.59-13.61 21.93-16.34 35.72-1.39 6.98-1.41 22.52-0.04 28.76 2.37 10.78 6.48 18.58 12.98 24.66 4.12 3.85 8.73 6.3 15.68 8.31 4.27 1.24 5.73 1.34 17.75 1.31 10.46-0.03 14.74-0.29 21.25-1.31 12.02-1.87 19.76-3.59 21.82-4.84 1.63-1 1.8-1.36 1.64-3.52-0.4-5.39-5.22-6.02-20.84-2.73-7.07 1.49-10.47 1.91-15.72 1.93-8.65 0.04-10.57-0.67-4.95-1.81 8.47-1.73 18.84-4.38 19.76-5.05 0.86-0.62 0.89-1.4 0.33-7.38-1.99-21.18-7.78-33.88-17.47-38.31-3.8-1.73-11.98-2.38-16.88-1.32q-5.74 1.22-1.37-0.99c6.3-3.17 15.18-3.26 21.36-0.21 10.95 5.39 17.29 19.23 19.34 42.2l0.4 4.57 2.53-0.38c4.31-0.65 11.08-0.42 13.14 0.44 2.31 0.96 5.55 4.47 6.08 6.56 0.2 0.82 0.24 2.84 0.08 4.49-0.25 2.62-0.59 3.28-2.66 5.12-3.55 3.14-11.36 5.41-25.14 7.27-7.56 1.03-27.78 1.53-34.05 0.84zm47.41-31.55c-5.01-18.63-12.46-66.46-10.53-67.66 1.56-0.96 6.02 13.81 8.49 28.19 1.51 8.74 4.06 28.73 4.74 37.11 0.38 4.61 0.35 4.8-0.82 4.8-0.94 0-1.37-0.56-1.88-2.44zm21.28-141.9c-1.6-0.94-3.7-2.35-4.66-3.14l-1.74-1.44 2.33-0.49c1.28-0.27 4.47-0.49 7.08-0.49 4.23 0 4.92 0.15 6.26 1.41 2.01 1.89 1.89 3.32-0.39 4.71-2.67 1.62-5.45 1.45-8.88-0.56z"/>
	</g>
</svg>